<?xml version="1.0" encoding="utf-8"?>
<!-- Generator: Adobe Illustrator 18.0.0, SVG Export Plug-In . SVG Version: 6.00 Build 0)  -->
<!DOCTYPE svg PUBLIC "-//W3C//DTD SVG 1.1//EN" "http://www.w3.org/Graphics/SVG/1.1/DTD/svg11.dtd">
<svg version="1.1" id="Isolation_Mode" xmlns="http://www.w3.org/2000/svg" xmlns:xlink="http://www.w3.org/1999/xlink" x="0px"
	 y="0px" viewBox="0 0 130 24" enable-background="new 0 0 130 24" xml:space="preserve">
<path fill="#464D51" d="M42.2,6.6c-0.8-0.2-1.6-0.3-2.5-0.3c-3.6,0-5.6,2.1-5.6,5.7v8.7c0,0.3,0.1,0.5,0.4,0.5h1.7
	c0.3,0,0.6-0.1,0.6-0.5v-8.8c0-2.7,2.2-2.9,3.1-2.9c0.5,0,1.1,0.1,1.7,0.2c0.4,0.1,0.6-0.1,0.6-0.4l0.4-1.5
	C42.7,6.9,42.4,6.7,42.2,6.6"/>
<path fill="#464D51" d="M51.7,6.2c-4.7,0-7.7,3-7.7,7.7c0,4.7,3,7.7,7.7,7.7c2.4,0,4.4-0.8,5.9-2.5c0.1-0.1,0.1-0.2,0.1-0.4
	c0-0.1-0.1-0.3-0.3-0.3L56,17.7c-0.3-0.1-0.6-0.1-0.8,0.1c-0.8,0.7-2.1,1.2-3.5,1.2c-2.9,0-4.7-1.7-4.9-4.8c0-0.7,0-1.6,0.2-2.2
	c0.6-2.1,2.2-3.2,4.6-3.2c2.3,0,4,0.9,4.6,3.3H45.9c-0.3,0-0.3,0.2-0.3,0.4v1.7c0,0.3,0,0.2,0.3,0.2h12.9c0.3,0,0.5-0.1,0.5-0.3
	c0,0,0-0.3,0-0.3c0-2.4-0.8-4.3-2.2-5.7C55.8,6.8,53.9,6.2,51.7,6.2"/>
<path fill="#464D51" d="M93.1,7.2c0-0.3-0.2-0.5-0.5-0.5h-2c-0.3,0-0.5,0.2-0.5,0.5v13.4c0,0.3,0.2,0.5,0.5,0.5h2
	c0.3,0,0.5-0.2,0.5-0.5V7.2z"/>
<path fill="#464D51" d="M129.6,0h-1.7c-0.3,0-0.6,0.3-0.6,0.7v7c-1.1-1.3-3-1.8-4.9-1.8c-0.1,0-0.2,0-0.2,0c-4.4,0-7.3,3-7.3,7.7
	c0,4.5,3.2,7.7,7.6,7.7c4.6,0,7.6-3.1,7.6-7.7V0.7C130,0.3,129.9,0,129.6,0 M127.3,13.6c0,3.2-1.8,5.1-4.9,5.1c-3,0-4.9-1.9-4.9-5.1
	c0-3.2,1.8-5.1,4.9-5.1C125.5,8.5,127.2,10.3,127.3,13.6"/>
<path fill="#464D51" d="M79.1,6.2C76.8,6.2,75,7,74,8.6C72.8,7,71,6.2,68.8,6.2c-4.1,0-6.6,2.5-6.6,6.7v7.8c0,0.3,0.3,0.5,0.6,0.5
	h1.7c0.3,0,0.7-0.1,0.7-0.5v-7.8c0-3.4,2-4.1,3.7-4.1c1.3,0,3.4,1.3,3.4,2.9v9c0,0.3,0.2,0.5,0.5,0.5h0.2h1.7h0.1
	c0.3,0,0.5-0.2,0.5-0.5v-9c0-1.6,1.7-2.8,3.4-2.8c1.7,0,3.7,0.7,3.7,4.1v7.8c0,0.3,0.4,0.5,0.7,0.5H85c0.3,0,0.6-0.1,0.6-0.5v-7.8
	C85.6,8.7,83.2,6.2,79.1,6.2"/>
<path fill="#464D51" d="M104.4,6.2c-4.4,0-7.3,2.8-7.3,7.3v7.2c0,0.3,0.4,0.5,0.7,0.5h1.7c0.3,0,0.6-0.1,0.6-0.5v-7.2
	c0-4.1,3.1-4.3,4.2-4.3c1.2,0,4.2,0.2,4.2,4.3v7.2c0,0.3,0.3,0.5,0.6,0.5h1.7c0.3,0,0.7-0.1,0.7-0.5v-7.2
	C111.7,9,108.8,6.2,104.4,6.2"/>
<path fill="#36B2FF" d="M28,10.8c0-2.6-2.1-4.8-4.9-5.5c-1.7-2.1-4.9-3.6-8.6-3.6C9.9,1.7,6.1,3.9,5,6.8c-2.9,1-5,3.7-5,7
	c0,4.1,3.3,7.4,7.5,7.4c1.5,0,2.8-0.4,4-1.1l0.4,3.2c0.1,0.7,1,1,1.5,0.4l3.2-4.2c0.2,0,0.5,0.1,0.8,0.1c2,0,3.8-1.3,4.5-3
	C25.2,16.2,28,13.8,28,10.8"/>
</svg>
