<?xml version="1.0" encoding="utf-8"?>
<!-- Generator: Adobe Illustrator 17.0.0, SVG Export Plug-In . SVG Version: 6.00 Build 0)  -->
<!DOCTYPE svg PUBLIC "-//W3C//DTD SVG 1.1//EN" "http://www.w3.org/Graphics/SVG/1.1/DTD/svg11.dtd">
<svg version="1.1" id="Layer_1" xmlns="http://www.w3.org/2000/svg" xmlns:xlink="http://www.w3.org/1999/xlink" x="0px" y="0px"
	 width="372px" height="285.386px" viewBox="0 0 372 285.386" enable-background="new 0 0 372 285.386" xml:space="preserve">
<path fill="#5C9600" d="M322.05,183.055c0,0,20.16,2.086,41.711,17.38l-31.747,17.38l-1.854,37.076c0,0-41.247-24.1-67.664-27.575
	c9.501-10.428,32.673-40.784,32.673-40.784L322.05,183.055z"/>
<path fill="#4B7508" d="M300.713,196.626l-8.597-6.117c-6.607,8.577-22.238,28.704-29.62,36.807l43.714-11.149L300.713,196.626z"/>
<path fill="#5C9600" d="M48.994,183.055c0,0-20.16,2.086-41.711,17.38l31.747,17.38l1.854,37.076c0,0,41.247-24.1,67.664-27.575
	c-9.501-10.428-32.673-40.784-32.673-40.784L48.994,183.055z"/>
<path fill="#4B7508" d="M70.331,196.626l8.597-6.117c6.607,8.577,22.238,28.704,29.62,36.807l-43.714-11.149L70.331,196.626z"/>
<path fill="#619E00" d="M184.902,109.504c-43.016,0-100.956,6.145-150.556,49.6c6.584,16.68,29.409,57.062,29.409,57.062
	s56.415-34.546,121.228-34.673c64.812,0.128,121.227,34.673,121.227,34.673s22.825-40.382,29.409-57.062
	c-49.6-43.455-107.54-49.6-150.557-49.6"/>
<path fill="#FFB600" d="M296.494,9.256H75.172c-4.584,0-8.3,3.716-8.3,8.3v121.4c0,0.167,0.005,0.333,0.015,0.498
	c-0.002,0.145-0.003,0.29-0.003,0.436c0,15.533,3.659,31.194,10.876,46.548c6.514,13.86,15.767,27.173,27.502,39.569
	c21.411,22.616,49.35,40.313,76.836,48.699c1.113,0.527,2.327,0.798,3.552,0.798c0.054,0,0.107-0.001,0.161-0.001
	c0.053,0.001,0.107,0.001,0.161,0.001c1.226,0,2.44-0.272,3.553-0.798c27.486-8.387,55.425-26.083,76.836-48.699
	c11.735-12.396,20.988-25.709,27.502-39.569c7.212-15.344,10.871-30.995,10.876-46.517c0.037-0.317,0.056-0.639,0.056-0.965v-121.4
	C304.794,12.972,301.078,9.256,296.494,9.256z"/>
<polygon opacity="0.4" fill="#FFD400" points="66.872,43.879 66.872,128.502 186.119,9.256 101.495,9.256 "/>
<path opacity="0.4" fill="#FFD400" d="M304.794,17.556c0-4.584-3.716-8.3-8.3-8.3h-89.522L67.334,148.894
	c1.137,12.562,4.601,25.153,10.425,37.544c6.514,13.86,15.767,27.173,27.502,39.569c0.166,0.175,0.34,0.343,0.506,0.518
	L304.794,27.498V17.556z"/>
<path opacity="0.4" fill="#FFD400" d="M136.705,252.614c11.599,7.84,23.896,14.28,36.259,18.953l131.783-131.783
	c0.027-0.273,0.048-0.548,0.048-0.828V84.524L136.705,252.614z"/>
<g>
	<path fill="#E58800" d="M262.504,108.171c0-1.599,0.097-4.458-3.586-4.458c-3.877,0-18.834,9.658-22.517,9.658
		c-2.811,0,1.516-18.843,1.516-35.697c0-4.265-1.9-10.66-5.242-10.66c-8.175,0-9.169,7.332-26.905,7.332
		c-28.108,0-31.497-18.931-45.745-18.931c-12.471,0-12.148,29.461-12.148,33.338c0,3.877,0.953,16.8-4.975,16.8
		c-6.849,0-22.745-12.471-30.175-12.471c-2.972,0-4.911,4.2-4.911,11.889c0,35.021,40.32,50.917,41.418,55.957
		c5.492,24.425,19.837,34.63,38.705,34.63c28.237,0,36.249-34.889,37.897-35.858C263.636,137.698,262.504,109.77,262.504,108.171z
		 M173.48,117.568c-7.137,0-12.923-7.035-12.923-15.713c0-8.678,5.786-15.713,12.923-15.713c7.137,0,12.923,7.035,12.923,15.713
		C186.403,110.533,180.617,117.568,173.48,117.568z M195.569,131.042c-0.062,0.03-0.116,0.059-0.164,0.088
		c-0.992,0.455-2.142,0.72-3.456,0.72c-3.921,0-4.443-5.828-4.432-9.048c0.008-0.766,0.261-1.303,0.701-1.303
		c0.388,0,0.697,0.314,0.994,0.703c1.473,2.526,4.147,5.507,6.566,7.816c0.001,0.002,0.004,0.012,0.004,0.012
		S196.505,130.595,195.569,131.042z M201.571,131.506c-1.389,0-11.61-9.499-11.61-13.555s3.889-7.277,9.333-7.277
		c4.5,0,7.888,5.222,7.888,10.388S202.96,131.506,201.571,131.506z M228.486,104.821c-0.409,7.633-5.57,13.659-11.528,13.458
		c-5.958-0.201-10.456-6.551-10.047-14.185s5.57-13.659,11.528-13.458C224.397,90.837,228.895,97.188,228.486,104.821z"/>
	<path fill="#E58800" d="M173.214,93.224c-1.013,0-1.975,0.262-2.848,0.728c0.67,0.657,1.098,1.597,1.098,2.651
		c0,1.984-1.489,3.593-3.325,3.593c-0.656,0-1.263-0.212-1.778-0.566c-0.156,0.711-0.247,1.455-0.247,2.226
		c0,4.767,3.178,8.631,7.099,8.631c3.921,0,7.099-3.864,7.099-8.631C180.313,97.088,177.135,93.224,173.214,93.224z"/>
	<path fill="#E58800" d="M218.094,96.401c-0.945-0.045-1.857,0.206-2.693,0.676c0.679,0.587,1.137,1.484,1.17,2.516
		c0.058,1.83-1.218,3.354-2.849,3.404c-0.752,0.023-1.441-0.281-1.979-0.784c-0.173,0.644-0.296,1.318-0.347,2.021
		c-0.324,4.488,2.149,8.256,5.524,8.418c3.375,0.162,6.374-3.345,6.699-7.833C223.942,100.332,221.469,96.563,218.094,96.401z"/>
	<path fill="#E58800" d="M186.048,128.613"/>
	<path fill="#E58800" d="M182.363,200.189c4.831-0.253,8.298,0.776,8.525,5.113c0.227,4.337-5.658,5.471-8.787,5.635
		c-3.129,0.164-6.671-1.247-6.835-4.376S177.999,200.418,182.363,200.189z"/>
	<path fill="#E58800" d="M212.044,191.32c4.611-0.242,4.709,4.762,4.729,5.147c0.02,0.384,0.493,5.204-7.577,5.627
		c-5.105,0.268-4.95-2.025-5.009-3.15S206.197,191.627,212.044,191.32z"/>
</g>
<g>
	<path fill="#E58800" d="M281.045,33.168l0,104.68l-0.048,0.414l0,0.417c-0.004,12.323-2.93,24.792-8.697,37.063
		c-5.293,11.261-12.842,22.11-22.437,32.246c-17.601,18.592-40.621,33.199-63.157,40.075l-0.479,0.147l-0.478,0.226l-0.109,0.004
		l-0.135,0.003l-0.478-0.226l-0.506-0.154c-22.536-6.876-45.556-21.483-63.158-40.075c-9.596-10.136-17.145-20.985-22.437-32.246
		c-5.771-12.279-8.697-24.757-8.697-37.088c0-0.091,0.001-0.182,0.002-0.273l0.004-0.267l-0.016-0.265l0-104.68H281.045
		 M281.117,25.934H90.146c-3.956,0-7.162,3.207-7.162,7.162v104.752c0,0.144,0.004,0.288,0.013,0.43
		c-0.002,0.125-0.003,0.25-0.003,0.376c0,13.402,3.157,26.916,9.384,40.165c5.621,11.959,13.605,23.446,23.731,34.142
		c18.475,19.515,42.583,34.785,66.3,42.021c0.96,0.454,2.008,0.689,3.065,0.689c0.046,0,0.092,0,0.139-0.001
		c0.046,0.001,0.092,0.001,0.139,0.001c1.058,0,2.105-0.234,3.065-0.689c23.717-7.237,47.825-22.506,66.299-42.021
		c10.126-10.696,18.11-22.183,23.731-34.142c6.223-13.24,9.38-26.744,9.384-40.138c0.032-0.273,0.048-0.551,0.048-0.833V33.096
		C288.279,29.14,285.073,25.934,281.117,25.934L281.117,25.934z"/>
</g>
</svg>
