<?xml version="1.0" standalone="no"?>
<!DOCTYPE svg PUBLIC "-//W3C//DTD SVG 20010904//EN"
 "http://www.w3.org/TR/2001/REC-SVG-20010904/DTD/svg10.dtd">
<svg version="1.0" xmlns="http://www.w3.org/2000/svg"
 width="181.000000pt" height="181.000000pt" viewBox="0 0 181.000000 181.000000"
 preserveAspectRatio="xMidYMid meet">
<metadata>
Created by potrace 1.11, written by Peter Selinger 2001-2013
</metadata>
<g transform="translate(0.000000,181.000000) scale(0.100000,-0.100000)"
fill="#000000" stroke="none">
<path d="M1002 1277 c-24 -29 -312 -644 -312 -667 0 -44 85 -81 118 -52 25 23
313 624 315 658 3 48 -92 96 -121 61z"/>
<path d="M289 1084 c-118 -69 -220 -133 -226 -142 -20 -25 -15 -66 9 -89 44
-39 416 -253 441 -253 18 0 32 10 47 35 38 61 30 71 -137 170 -83 50 -152 92
-152 95 0 3 67 45 150 94 161 97 173 110 145 165 -14 25 -43 51 -59 51 -2 0
-100 -57 -218 -126z"/>
<path d="M1267 1180 c-36 -43 -42 -68 -21 -91 9 -11 80 -56 156 -100 76 -45
138 -84 138 -88 0 -3 -67 -46 -150 -95 -84 -50 -152 -97 -156 -108 -6 -20 22
-75 47 -91 26 -16 54 -3 269 125 l205 123 3 41 c2 29 -2 44 -15 55 -28 23
-405 246 -429 253 -16 5 -28 -1 -47 -24z"/>
</g>
</svg>
