<?xml version="1.0" encoding="UTF-8" standalone="no"?>
<!-- Generator: Adobe Illustrator 15.0.2, SVG Export Plug-In . SVG Version: 6.00 Build 0)  -->

<svg
   xmlns:dc="http://purl.org/dc/elements/1.1/"
   xmlns:cc="http://creativecommons.org/ns#"
   xmlns:rdf="http://www.w3.org/1999/02/22-rdf-syntax-ns#"
   xmlns:svg="http://www.w3.org/2000/svg"
   xmlns="http://www.w3.org/2000/svg"
   xmlns:xlink="http://www.w3.org/1999/xlink"
   xmlns:sodipodi="http://sodipodi.sourceforge.net/DTD/sodipodi-0.dtd"
   xmlns:inkscape="http://www.inkscape.org/namespaces/inkscape"
   version="1.1"
   id="Layer_1"
   x="0px"
   y="0px"
   width="394px"
   height="246px"
   viewBox="0 0 394 246"
   enable-background="new 0 0 394 246"
   xml:space="preserve"
   inkscape:version="0.48.3.1 r9886"
   sodipodi:docname="logo-br.svg"
   inkscape:export-filename="/var/www/code-club-portuguese/CodeClubBrasil.github.io/img/logo-br.png"
   inkscape:export-xdpi="144.86624"
   inkscape:export-ydpi="144.86624"><metadata
   id="metadata13"><rdf:RDF><cc:Work
       rdf:about=""><dc:format>image/svg+xml</dc:format><dc:type
         rdf:resource="http://purl.org/dc/dcmitype/StillImage" /><dc:title /></cc:Work></rdf:RDF></metadata><defs
   id="defs11"><use
     transform="scale(10.5)"
     xlink:href="#star"
     id="star5" /><use
     transform="scale(15)"
     xlink:href="#star"
     id="star4" /><use
     transform="scale(21)"
     xlink:href="#star"
     id="star3" /><use
     transform="scale(26.25)"
     xlink:href="#star"
     id="star2" /><use
     transform="scale(31.5)"
     xlink:href="#star"
     id="star1" /><g
     id="star"
     fill="#fff"><g
       id="c"><path
         transform="rotate(18 0,-1)"
         d="M 0,-1 v 1 h .5"
         id="t" /><use
         id="use3231"
         transform="scale(-1,1)"
         xlink:href="#t" /></g><use
       id="use3233"
       transform="rotate(72)"
       xlink:href="#c" /><use
       id="use3235"
       transform="rotate(-72)"
       xlink:href="#c" /><use
       id="use3237"
       transform="rotate(144)"
       xlink:href="#c" /><use
       id="use3239"
       transform="rotate(-144)"
       xlink:href="#c" /></g><path
     d="M -15.75,-22 C -15.75,-15 -9,-11.5 1,-11.5 C 11,-11.5 15.74,-14.75 15.75,-19.25 C 15.75,-33.5 -31,-24.5 -30.75,-49.5 C -30.5,-71 -6,-70 3,-70 C 12,-70 29,-66 28.75,-48.75 L 13.5,-48.75 C 13.5,-56.25 6.5,-59 -1.5,-59 C -9.25,-59 -14.75,-57.75 -14.75,-50.5 C -15,-38.75 31.5,-46.5 31.5,-21.75 C 31.5,-3.5 13.5,0 0,0 C -11.5,0 -31.55,-4.5 -31.5,-22 z"
     id="S" /><g
     id="R"><use
       id="use3223"
       xlink:href="#P" /><path
       id="path3225"
       d="M 28,0 c 0,-10 0,-32 -15,-32 h -19 c 22,0 22,22 22,32" /></g><path
     d="M -31.5,0 h 13 v -26 h 28 a 22 22 0 0 0 0,-44 h -40 z M -18.5,-39 h 27 a 9 9 0 0 0 0,-18 h -27 z"
     id="P"
     fill-rule="evenodd" /><path
     d="M 0,0 a 31.5 35 0 0 0 0,-70 a 31.5 35 0 0 0 0,70 M 0,-13 a 18.5 22 0 0 0 0,-44 a 18.5 22 0 0 0 0,44"
     id="O"
     fill-rule="evenodd" /><path
     d="M -31.5,0 h 12 v -48 l 14,48 h 11 l 14,-48 V 0 h 12 V -70 h -17.5 l -14,48 l -14,-48 H -31.5 z"
     id="M" /><g
     id="G"><clipPath
       id="gcut"><path
         id="path3211"
         d="M -31.5,0 v -70 h 63 v 70 z M 0,-47 v 12 h 31.5 v -12 z" /></clipPath><use
       id="use3213"
       clip-path="url(#gcut)"
       xlink:href="#O" /><rect
       id="rect3215"
       height="10"
       width="26.5"
       y="-35"
       x="5" /><rect
       id="rect3217"
       height="35"
       width="10"
       y="-35"
       x="21.5" /></g><path
     d="M -26.25,0 h 52.5 v -12 h -40.5 v -16 h 33 v -12 h -33 v -11 H 25 v -12 H -26.25 z"
     id="e" /><path
     transform="translate(-31.5)"
     d="M 0,0 h 63 v -13 H 12 v -18 h 40 v -12 h -40 v -14 H 60 v -13 H 0 z"
     id="E" /><path
     d="M -31.5,0 h 33 a 30 30 0 0 0 30,-30 v -10 a 30 30 0 0 0 -30,-30 H -31.5 z M -18.5,-13 h 19 a 19 19 0 0 0 19,-19 v -6 a 19 19 0 0 0 -19,-19 H -18.5 z"
     id="D"
     fill-rule="evenodd" /><clipPath
     id="band"><circle
       sodipodi:ry="735"
       sodipodi:rx="735"
       sodipodi:cy="0"
       sodipodi:cx="0"
       cy="0"
       cx="0"
       r="735"
       id="circle4181" /></clipPath><clipPath
     id="gcut-2"><path
       inkscape:connector-curvature="0"
       d="m -31.5,0 v -70 h 63 V 0 z M 0,-47 v 12 h 31.5 v -12 z"
       id="path4139" /></clipPath><clipPath
     clipPathUnits="userSpaceOnUse"
     id="clipPath4483"><path
       style="fill:#007dc5;display:inline"
       inkscape:connector-curvature="0"
       id="path4485"
       d="m 343.73567,4.32572 c -27.896,0 -53.594,9.388 -74.125,25.164 -20.532,-15.776 -46.231,-25.164 -74.126,-25.164 -67.249,0 -121.767,54.519001 -121.767,121.769 0,67.248 54.518,121.766 121.767,121.766 27.895,0 53.594,-9.385 74.125,-25.162 20.532,15.777 46.229,25.162 74.125,25.162 67.25,0 121.768,-54.518 121.768,-121.766 0,-67.249999 -54.517,-121.769 -121.767,-121.769 z" /></clipPath></defs><sodipodi:namedview
   pagecolor="#ffffff"
   bordercolor="#666666"
   borderopacity="1"
   objecttolerance="10"
   gridtolerance="10"
   guidetolerance="10"
   inkscape:pageopacity="0"
   inkscape:pageshadow="2"
   inkscape:window-width="1366"
   inkscape:window-height="721"
   id="namedview9"
   showgrid="false"
   inkscape:zoom="3.8373984"
   inkscape:cx="-12.139563"
   inkscape:cy="125.05188"
   inkscape:window-x="-3"
   inkscape:window-y="-3"
   inkscape:window-maximized="1"
   inkscape:current-layer="g4457"><inkscape:grid
     type="xygrid"
     id="grid3051" /></sodipodi:namedview>



<g
   inkscape:groupmode="layer"
   id="layer1"
   inkscape:label="brazil"
   style="opacity:1"><g
     id="g4457"
     clip-path="url(#clipPath4483)"
     transform="translate(-72,-2)"><g
       id="g4478"
       transform="translate(-168,0)"><rect
         style="fill:#42b23c;fill-opacity:1;stroke:#d40000;stroke-width:0;stroke-miterlimit:4;stroke-opacity:1;stroke-dasharray:none"
         id="rect4416"
         width="673.37286"
         height="253.96228"
         x="0.33474731"
         y="2.1841125" /><path
         style="fill:#fedf00"
         inkscape:connector-curvature="0"
         d="m 6.3822,127.4553 182.8,116.72805 182.8,-116.72805 -182.8,-116.727666 z"
         id="path4176" /></g><path
       style="fill:#002776"
       d="m 43.448092,50.375 c -42.57262078,0 -77.09375,34.521128 -77.09375,77.09375 0,42.57262 34.52112922,77.0625 77.09375,77.0625 42.572622,0 77.093748,-34.48988 77.093748,-77.0625 0,-42.572622 -34.521126,-77.09375 -77.093748,-77.09375 z"
       id="circle4178"
       inkscape:connector-curvature="0" /></g></g><g
   inkscape:groupmode="layer"
   id="layer2"
   inkscape:label="cc"
   style="display:inline"><path
   style="fill:#ffffff"
   inkscape:connector-curvature="0"
   d="m 83.51358,175.55667 c 0,1.797 -0.439,3.243 -2.225,3.288 v 0.027 c -0.965,0.078 0.228,0.117 -0.543,0.117 -6.054,0 -10.334,-1.33 -12.839,-3.992 -2.506,-2.66 -3.76,-7.172 -3.76,-13.533 v -21.684 c 0,-3.433 -0.503,-5.986 -1.504,-7.664 -0.995,-1.662 -2.732,-2.857 -5.205,-3.594 -1.254,-0.496 -2.146,-1.705 -2.146,-3.135 0,-1.41 0.864,-2.613 2.088,-3.126 v -0.006 c 4.513,-1.194 6.768,-4.742 6.768,-10.643 V 88.482669 c 0,-5.744 1.291,-9.890999 3.874,-12.435999 2.584,-2.544001 6.826,-3.816001 12.725,-3.816001 h 0.543 v 0.004 c 1.849,0.013 2.346,1.511 2.346,3.361 0,1.852001 -0.497,2.320001 -2.346,2.331001 v 0.04 c -4.436,0.078 -7.423,0.83 -8.965,2.256 -1.542,1.426 -2.312,4.184999 -2.312,8.269999 v 23.582001 c 0,2.66 -0.35,5.109 -1.044,7.344 -0.807,2.508 -2.871,4.591 -6.187,6.247 2.66,1.427 4.53,3.161 5.611,5.204 1.078,2.045 1.619,4.938 1.619,8.676 v 22.716 c 0,4.396 0.73,7.315 2.197,8.764 1.465,1.445 4.491,2.188 9.08,2.227 v 0.047 c 1.785,0.043 2.225,0.459 2.225,2.257 l 0,0 z m 247.616,0 c 0,1.797 1.439,3.243 3.225,3.288 v 0.027 c 0.965,0.078 -0.229,0.117 0.543,0.117 6.057,0 10.334,-1.33 12.84,-3.992 2.51,-2.66 3.762,-7.172 3.762,-13.533 v -21.684 c 0,-3.433 0.502,-5.986 1.504,-7.664 0.996,-1.662 2.73,-2.857 5.205,-3.594 1.256,-0.496 2.145,-1.705 2.145,-3.135 0,-1.41 -0.861,-2.613 -2.088,-3.126 v -0.006 c -4.512,-1.194 -6.768,-4.742 -6.768,-10.643 V 88.482669 c 0,-5.744 -1.291,-9.890999 -3.875,-12.435999 -2.582,-2.544001 -6.824,-3.816001 -12.725,-3.816001 h -0.543 v 0.004 c -1.848,0.013 -3.346,1.511 -3.346,3.361 0,1.852001 1.498,2.320001 3.346,2.331001 v 0.04 c 4.436,0.078 7.424,0.83 8.965,2.256 1.543,1.426 2.314,4.186 2.314,8.271 v 23.582 c 0,2.66 0.348,5.109 1.041,7.344 0.809,2.508 2.873,4.591 6.188,6.247 -2.66,1.427 -4.529,3.161 -5.611,5.204 -1.076,2.045 -1.617,4.938 -1.617,8.676 v 22.716 c 0,4.396 -0.732,7.315 -2.197,8.764 -1.467,1.445 -4.492,2.188 -9.082,2.227 v 0.047 c -1.787,0.042 -3.226,0.458 -3.226,2.256 l 0,0 z"
   id="path5" />

</g><g
   inkscape:groupmode="layer"
   id="layer4"
   inkscape:label="cc text"
   style="display:none"
   sodipodi:insensitive="true"><text
   xml:space="preserve"
   style="font-size:72px;font-style:normal;font-weight:normal;line-height:125%;letter-spacing:0px;word-spacing:0px;fill:#ffffff;fill-opacity:1;stroke:none;display:inline;font-family:Sans"
   x="205.49579"
   y="105.80998"
   id="text4487-6"
   sodipodi:linespacing="125%"><tspan
     sodipodi:role="line"
     id="tspan4489-6"
     x="205.49579"
     y="105.80998"
     style="font-size:48px;text-align:center;text-anchor:middle;fill:#ffffff">codeclub</tspan><tspan
     sodipodi:role="line"
     x="205.49579"
     y="165.80998"
     id="tspan4491-6"
     style="font-size:48px;text-align:center;text-anchor:middle;fill:#ffffff">brasil.org</tspan></text>

</g><g
   style="display:inline"
   inkscape:label="cc path"
   id="g3053"
   inkscape:groupmode="layer"><g
     style="font-size:72px;font-style:normal;font-weight:normal;line-height:125%;letter-spacing:0px;word-spacing:0px;fill:#ffffff;fill-opacity:1;stroke:none;display:inline;font-family:Sans"
     id="text3055"><path
       d="m 120.67548,80.567795 0,4.03125 c -1.21878,-0.671853 -2.44534,-1.171853 -3.67969,-1.5 -1.21877,-0.343727 -2.45314,-0.515602 -3.70313,-0.515625 -2.79688,2.3e-5 -4.96876,0.890647 -6.51562,2.671875 -1.54688,1.765644 -2.32032,4.250016 -2.32031,7.453125 -10e-6,3.203135 0.77343,5.69532 2.32031,7.47656 1.54686,1.76563 3.71874,2.64844 6.51562,2.64844 1.24999,0 2.48436,-0.16406 3.70313,-0.49219 1.23435,-0.34374 2.46091,-0.85156 3.67969,-1.52344 l 0,3.98438 c -1.20315,0.5625 -2.45315,0.98437 -3.75,1.26562 -1.28127,0.28125 -2.64846,0.42188 -4.10157,0.42188 -3.95313,0 -7.09375,-1.24219 -9.42187,-3.72656 -2.32813,-2.48437 -3.492192,-5.835931 -3.492189,-10.05469 -3e-6,-4.281233 1.171869,-7.648417 3.515629,-10.101563 2.35936,-2.453099 5.58592,-3.67966 9.67968,-3.679687 1.32811,2.7e-5 2.62499,0.140652 3.89063,0.421875 1.2656,0.265651 2.49216,0.671901 3.67969,1.21875"
       style="font-size:48px;text-align:center;text-anchor:middle;fill:#ffffff"
       id="path3062" /><path
       d="m 138.39423,82.58342 c -2.31252,2.3e-5 -4.14064,0.906272 -5.48438,2.71875 -1.34376,1.796894 -2.01563,4.265641 -2.01562,7.40625 -1e-5,3.140635 0.66405,5.617195 1.99218,7.42969 1.34374,1.79688 3.17968,2.69531 5.50782,2.69531 2.29685,0 4.11716,-0.90625 5.46093,-2.71875 1.34373,-1.812493 2.01561,-4.28124 2.01563,-7.40625 -2e-5,-3.109359 -0.6719,-5.570294 -2.01563,-7.382813 -1.34377,-1.828102 -3.16408,-2.742164 -5.46093,-2.742187 m 0,-3.65625 c 3.74998,2.7e-5 6.69529,1.218775 8.83593,3.65625 2.1406,2.437521 3.21091,5.812517 3.21094,10.125 -3e-5,4.296884 -1.07034,7.67188 -3.21094,10.125 -2.14064,2.4375 -5.08595,3.65625 -8.83593,3.65625 -3.76564,0 -6.71876,-1.21875 -8.85938,-3.65625 -2.125,-2.45312 -3.1875,-5.828116 -3.1875,-10.125 0,-4.312483 1.0625,-7.687479 3.1875,-10.125 2.14062,-2.437475 5.09374,-3.656223 8.85938,-3.65625"
       style="font-size:48px;text-align:center;text-anchor:middle;fill:#ffffff"
       id="path3064" /><path
       d="m 174.83954,83.544357 0,-14.203125 4.3125,0 0,36.468748 -4.3125,0 0,-3.9375 c -0.90627,1.5625 -2.05471,2.72657 -3.44531,3.49219 -1.37502,0.75 -3.03127,1.125 -4.96875,1.125 -3.17189,0 -5.75782,-1.26562 -7.75782,-3.79688 -1.98438,-2.53124 -2.97656,-5.859361 -2.97656,-9.98437 0,-4.124983 0.99218,-7.453105 2.97656,-9.984375 2,-2.531225 4.58593,-3.796848 7.75782,-3.796875 1.93748,2.7e-5 3.59373,0.382839 4.96875,1.148437 1.3906,0.750025 2.53904,1.906274 3.44531,3.46875 m -14.69531,9.164063 c -1e-5,3.171885 0.64843,5.66407 1.94531,7.47656 1.31249,1.79688 3.10936,2.69532 5.39062,2.69531 2.28124,1e-5 4.07811,-0.89843 5.39063,-2.69531 1.31248,-1.81249 1.96873,-4.304675 1.96875,-7.47656 -2e-5,-3.171859 -0.65627,-5.656231 -1.96875,-7.453125 -1.31252,-1.812478 -3.10939,-2.718727 -5.39063,-2.71875 -2.28126,2.3e-5 -4.07813,0.906272 -5.39062,2.71875 -1.29688,1.796894 -1.94532,4.281266 -1.94531,7.453125"
       style="font-size:48px;text-align:center;text-anchor:middle;fill:#ffffff"
       id="path3066" /><path
       d="m 210.48798,91.606857 0,2.109375 -19.82813,0 c 0.18749,2.968759 1.07812,5.234382 2.67188,6.796878 1.60936,1.54688 3.84373,2.32031 6.70312,2.32031 1.65623,0 3.25779,-0.20312 4.80469,-0.60938 1.56248,-0.40624 3.10935,-1.01562 4.64062,-1.82812 l 0,4.07812 c -1.5469,0.65626 -3.13283,1.15625 -4.75781,1.5 -1.62502,0.34375 -3.27345,0.51563 -4.94531,0.51563 -4.18751,0 -7.50782,-1.21875 -9.96094,-3.65625 -2.4375,-2.43749 -3.65625,-5.734366 -3.65625,-9.890625 0,-4.296858 1.15625,-7.703105 3.46875,-10.21875 2.32812,-2.531225 5.46093,-3.796848 9.39844,-3.796875 3.53123,2.7e-5 6.32029,1.140651 8.36719,3.421875 2.06247,2.265646 3.09372,5.35158 3.09375,9.257812 m -4.3125,-1.265625 c -0.0313,-2.359357 -0.69534,-4.242167 -1.99219,-5.648437 -1.28127,-1.406228 -2.98439,-2.109352 -5.10938,-2.109375 -2.40626,2.3e-5 -4.33595,0.67971 -5.78906,2.039062 -1.43751,1.359395 -2.26563,3.273456 -2.48437,5.742188 l 15.375,-0.02344"
       style="font-size:48px;text-align:center;text-anchor:middle;fill:#ffffff"
       id="path3068" /><path
       d="m 236.45673,80.567795 0,4.03125 c -1.21878,-0.671853 -2.44534,-1.171853 -3.67969,-1.5 -1.21877,-0.343727 -2.45314,-0.515602 -3.70313,-0.515625 -2.79688,2.3e-5 -4.96876,0.890647 -6.51562,2.671875 -1.54688,1.765644 -2.32032,4.250016 -2.32031,7.453125 -1e-5,3.203135 0.77343,5.69532 2.32031,7.47656 1.54686,1.76563 3.71874,2.64844 6.51562,2.64844 1.24999,0 2.48436,-0.16406 3.70313,-0.49219 1.23435,-0.34374 2.46091,-0.85156 3.67969,-1.52344 l 0,3.98438 c -1.20315,0.5625 -2.45315,0.98437 -3.75,1.26562 -1.28127,0.28125 -2.64846,0.42188 -4.10157,0.42188 -3.95313,0 -7.09375,-1.24219 -9.42187,-3.72656 -2.32813,-2.48437 -3.49219,-5.835931 -3.49219,-10.05469 0,-4.281233 1.17187,-7.648417 3.51563,-10.101563 2.35936,-2.453099 5.58592,-3.67966 9.67968,-3.679687 1.32811,2.7e-5 2.62499,0.140652 3.89063,0.421875 1.2656,0.265651 2.49216,0.671901 3.67969,1.21875"
       style="font-size:48px;text-align:center;text-anchor:middle;fill:#ffffff"
       id="path3070" /><path
       d="m 244.0036,69.341232 4.3125,0 0,36.468748 -4.3125,0 0,-36.468748"
       style="font-size:48px;text-align:center;text-anchor:middle;fill:#ffffff"
       id="path3072" /><path
       d="m 256.87079,95.450607 0,-15.890625 4.3125,0 0,15.726563 c -10e-6,2.484383 0.48436,4.351568 1.45312,5.601565 0.96874,1.23438 2.42187,1.85156 4.35938,1.85156 2.32811,0 4.16404,-0.74218 5.50781,-2.22656 1.35936,-1.484371 2.03904,-3.507806 2.03906,-6.070315 l 0,-14.882813 4.3125,0 0,26.249998 -4.3125,0 0,-4.03125 c -1.04689,1.59375 -2.26564,2.78125 -3.65625,3.5625 -1.37501,0.76563 -2.97657,1.14844 -4.80468,1.14844 -3.01564,0 -5.3047,-0.9375 -6.86719,-2.8125 -1.56251,-1.875 -2.34376,-4.617181 -2.34375,-8.226563"
       style="font-size:48px;text-align:center;text-anchor:middle;fill:#ffffff"
       id="path3074" /><path
       d="m 306.6286,92.70842 c -2e-5,-3.171859 -0.65627,-5.656231 -1.96875,-7.453125 -1.29689,-1.812478 -3.08595,-2.718727 -5.36719,-2.71875 -2.28126,2.3e-5 -4.07813,0.906272 -5.39062,2.71875 -1.29689,1.796894 -1.94532,4.281266 -1.94531,7.453125 -10e-6,3.171885 0.64842,5.66407 1.94531,7.47656 1.31249,1.79688 3.10936,2.69532 5.39062,2.69531 2.28124,1e-5 4.0703,-0.89843 5.36719,-2.69531 1.31248,-1.81249 1.96873,-4.304675 1.96875,-7.47656 m -14.67187,-9.164063 c 0.90624,-1.562476 2.04686,-2.718725 3.42187,-3.46875 1.39061,-0.765598 3.04686,-1.14841 4.96875,-1.148437 3.18748,2.7e-5 5.77342,1.26565 7.75781,3.796875 1.99998,2.53127 2.99998,5.859392 3,9.984375 -2e-5,4.125009 -1.00002,7.45313 -3,9.98437 -1.98439,2.53126 -4.57033,3.79688 -7.75781,3.79688 -1.92189,0 -3.57814,-0.375 -4.96875,-1.125 -1.37501,-0.76562 -2.51563,-1.92969 -3.42187,-3.49219 l 0,3.9375 -4.33594,0 0,-36.468748 4.33594,0 0,14.203125"
       style="font-size:48px;text-align:center;text-anchor:middle;fill:#ffffff"
       id="path3076" /><path
       d="m 116.17548,152.70842 c -3e-5,-3.17186 -0.65628,-5.65623 -1.96875,-7.45313 -1.2969,-1.81247 -3.08596,-2.71872 -5.36719,-2.71875 -2.28127,3e-5 -4.07814,0.90628 -5.39063,2.71875 -1.29688,1.7969 -1.94532,4.28127 -1.94531,7.45313 -1e-5,3.17188 0.64843,5.66407 1.94531,7.47656 1.31249,1.79688 3.10936,2.69532 5.39063,2.69531 2.28123,1e-5 4.07029,-0.89843 5.36719,-2.69531 1.31247,-1.81249 1.96872,-4.30468 1.96875,-7.47656 m -14.67188,-9.16406 c 0.90624,-1.56248 2.04687,-2.71873 3.42188,-3.46875 1.39061,-0.7656 3.04686,-1.14841 4.96875,-1.14844 3.18748,3e-5 5.77341,1.26565 7.75781,3.79687 1.99997,2.53128 2.99997,5.8594 3,9.98438 -3e-5,4.12501 -1.00003,7.45313 -3,9.98437 -1.9844,2.53126 -4.57033,3.79688 -7.75781,3.79688 -1.92189,0 -3.57814,-0.375 -4.96875,-1.125 -1.37501,-0.76562 -2.51564,-1.92969 -3.42188,-3.49219 l 0,3.9375 -4.335936,0 0,-36.46875 4.335936,0 0,14.20313"
       style="font-size:48px;text-align:center;text-anchor:middle;fill:#ffffff"
       id="path3078" /><path
       d="m 143.01141,143.59123 c -0.48439,-0.28123 -1.01564,-0.48435 -1.59375,-0.60937 -0.56251,-0.1406 -1.18751,-0.21092 -1.875,-0.21094 -2.43751,2e-5 -4.31251,0.7969 -5.625,2.39062 -1.29688,1.57815 -1.94532,3.85158 -1.94531,6.82032 l 0,13.82812 -4.33594,0 0,-26.25 4.33594,0 0,4.07813 c 0.90624,-1.59373 2.08593,-2.77342 3.53906,-3.53907 1.45311,-0.78122 3.21874,-1.17184 5.29688,-1.17187 0.29686,3e-5 0.62498,0.0235 0.98437,0.0703 0.35936,0.0313 0.7578,0.086 1.19532,0.16406 l 0.0234,4.42969"
       style="font-size:48px;text-align:center;text-anchor:middle;fill:#ffffff"
       id="path3080" /><path
       d="m 159.51141,152.61467 c -3.48438,1e-5 -5.89844,0.39845 -7.24218,1.19531 -1.34376,0.79689 -2.01564,2.15626 -2.01563,4.07813 -1e-5,1.53125 0.49999,2.75 1.5,3.65625 1.01562,0.89063 2.39061,1.33594 4.125,1.33593 2.39061,1e-5 4.30467,-0.84374 5.74219,-2.53125 1.4531,-1.70311 2.17967,-3.96092 2.17969,-6.77343 l 0,-0.96094 -4.28907,0 m 8.60157,-1.78125 0,14.97656 -4.3125,0 0,-3.98437 c -0.9844,1.59375 -2.21096,2.77344 -3.67969,3.53906 -1.46877,0.75 -3.26564,1.125 -5.39063,1.125 -2.68751,0 -4.82813,-0.75 -6.42187,-2.25 -1.57813,-1.51562 -2.36719,-3.53906 -2.36719,-6.07031 0,-2.95312 0.98437,-5.17968 2.95313,-6.67969 1.98436,-1.49998 4.93749,-2.24998 8.85937,-2.25 l 6.04688,0 0,-0.42188 c -2e-5,-1.98435 -0.65627,-3.5156 -1.96875,-4.59375 -1.2969,-1.09372 -3.12502,-1.6406 -5.48438,-1.64062 -1.50001,2e-5 -2.96095,0.17971 -4.38281,0.53906 -1.42188,0.3594 -2.78907,0.89846 -4.10156,1.61719 l 0,-3.98438 c 1.57811,-0.60934 3.10936,-1.06247 4.59375,-1.35937 1.48436,-0.31247 2.92967,-0.46872 4.33593,-0.46875 3.79686,3e-5 6.6328,0.9844 8.50782,2.95312 1.87497,1.96878 2.81247,4.95315 2.8125,8.95313"
       style="font-size:48px;text-align:center;text-anchor:middle;fill:#ffffff"
       id="path3082" /><path
       d="m 193.7536,140.33342 0,4.07812 c -1.21877,-0.62497 -2.48439,-1.09372 -3.79687,-1.40625 -1.31252,-0.31247 -2.67189,-0.46872 -4.07813,-0.46875 -2.14064,3e-5 -3.75001,0.32815 -4.82812,0.98438 -1.06251,0.65627 -1.59376,1.64065 -1.59375,2.95312 -1e-5,1.00002 0.3828,1.78908 1.14843,2.36719 0.76562,0.56252 2.30468,1.10158 4.61719,1.61719 l 1.47656,0.32812 c 3.06249,0.65627 5.23436,1.58596 6.51563,2.78907 1.29685,1.18751 1.94529,2.85157 1.94531,4.99218 -2e-5,2.43751 -0.96877,4.3672 -2.90625,5.78907 -1.92189,1.42187 -4.57033,2.13281 -7.94531,2.13281 -1.40626,0 -2.87501,-0.14063 -4.40625,-0.42188 -1.51563,-0.26562 -3.11719,-0.67187 -4.80469,-1.21875 l 0,-4.45312 c 1.59375,0.82813 3.16406,1.45313 4.71094,1.875 1.54686,0.40625 3.07811,0.60938 4.59375,0.60937 2.03123,1e-5 3.59373,-0.34374 4.6875,-1.03125 1.09373,-0.70312 1.64061,-1.68749 1.64062,-2.95312 -1e-5,-1.17187 -0.39845,-2.0703 -1.19531,-2.69531 -0.78127,-0.62499 -2.50783,-1.22655 -5.17969,-1.80469 l -1.5,-0.35156 c -2.67188,-0.56249 -4.60156,-1.42186 -5.78906,-2.57813 -1.1875,-1.17186 -1.78125,-2.77342 -1.78125,-4.80469 0,-2.46872 0.875,-4.37497 2.625,-5.71875 1.74999,-1.34372 4.23437,-2.01559 7.45313,-2.01562 1.59373,3e-5 3.09373,0.11721 4.5,0.35156 1.40623,0.2344 2.7031,0.58597 3.89062,1.05469"
       style="font-size:48px;text-align:center;text-anchor:middle;fill:#ffffff"
       id="path3084" /><path
       d="m 202.05048,139.55998 4.3125,0 0,26.25 -4.3125,0 0,-26.25 m 0,-10.21875 4.3125,0 0,5.46094 -4.3125,0 0,-5.46094"
       style="font-size:48px;text-align:center;text-anchor:middle;fill:#ffffff"
       id="path3086" /><path
       d="m 215.36298,129.34123 4.3125,0 0,36.46875 -4.3125,0 0,-36.46875"
       style="font-size:48px;text-align:center;text-anchor:middle;fill:#ffffff"
       id="path3088" /><path
       d="m 229.28485,159.85686 4.94531,0 0,5.95312 -4.94531,0 0,-5.95312"
       style="font-size:48px;text-align:center;text-anchor:middle;fill:#ffffff"
       id="path3090" /><path
       d="m 254.1286,142.58342 c -2.31251,2e-5 -4.14063,0.90627 -5.48437,2.71875 -1.34376,1.79689 -2.01564,4.26564 -2.01563,7.40625 -1e-5,3.14063 0.66406,5.61719 1.99219,7.42969 1.34374,1.79688 3.17967,2.69531 5.50781,2.69531 2.29686,0 4.11717,-0.90625 5.46094,-2.71875 1.34373,-1.81249 2.0156,-4.28124 2.01562,-7.40625 -2e-5,-3.10936 -0.67189,-5.57029 -2.01562,-7.38281 -1.34377,-1.82811 -3.16408,-2.74217 -5.46094,-2.74219 m 0,-3.65625 c 3.74998,3e-5 6.69529,1.21878 8.83594,3.65625 2.1406,2.43752 3.21091,5.81252 3.21094,10.125 -3e-5,4.29688 -1.07034,7.67188 -3.21094,10.125 -2.14065,2.4375 -5.08596,3.65625 -8.83594,3.65625 -3.76563,0 -6.71876,-1.21875 -8.85937,-3.65625 -2.12501,-2.45312 -3.18751,-5.82812 -3.1875,-10.125 -1e-5,-4.31248 1.06249,-7.68748 3.1875,-10.125 2.14061,-2.43747 5.09374,-3.65622 8.85937,-3.65625"
       style="font-size:48px;text-align:center;text-anchor:middle;fill:#ffffff"
       id="path3092" /><path
       d="m 288.51141,143.59123 c -0.48439,-0.28123 -1.01564,-0.48435 -1.59375,-0.60937 -0.56251,-0.1406 -1.18751,-0.21092 -1.875,-0.21094 -2.43751,2e-5 -4.31251,0.7969 -5.625,2.39062 -1.29688,1.57815 -1.94532,3.85158 -1.94531,6.82032 l 0,13.82812 -4.33594,0 0,-26.25 4.33594,0 0,4.07813 c 0.90624,-1.59373 2.08593,-2.77342 3.53906,-3.53907 1.45311,-0.78122 3.21874,-1.17184 5.29688,-1.17187 0.29686,3e-5 0.62498,0.0235 0.98437,0.0703 0.35936,0.0313 0.7578,0.086 1.19532,0.16406 l 0.0234,4.42969"
       style="font-size:48px;text-align:center;text-anchor:middle;fill:#ffffff"
       id="path3094" /><path
       d="m 309.51141,152.38029 c -2e-5,-3.12498 -0.64846,-5.54685 -1.94531,-7.26562 -1.28127,-1.71873 -3.08595,-2.5781 -5.41406,-2.57813 -2.31251,3e-5 -4.1172,0.8594 -5.41406,2.57813 -1.28126,1.71877 -1.92189,4.14064 -1.92188,7.26562 -1e-5,3.10939 0.64062,5.52345 1.92188,7.24219 1.29686,1.71876 3.10155,2.57813 5.41406,2.57813 2.32811,0 4.13279,-0.85937 5.41406,-2.57813 1.29685,-1.71874 1.94529,-4.1328 1.94531,-7.24219 m 4.3125,10.17188 c -2e-5,4.46875 -0.99221,7.78906 -2.97656,9.96094 -1.9844,2.18749 -5.02345,3.28124 -9.11719,3.28125 -1.51563,-1e-5 -2.94532,-0.1172 -4.28906,-0.35157 -1.34376,-0.21875 -2.64844,-0.5625 -3.91406,-1.03125 l 0,-4.19531 c 1.26562,0.6875 2.51562,1.19531 3.75,1.52344 1.23436,0.32812 2.49217,0.49218 3.77344,0.49219 2.8281,-1e-5 4.94529,-0.7422 6.35156,-2.22657 1.40623,-1.46875 2.10935,-3.69531 2.10937,-6.67968 l 0,-2.13282 c -0.89064,1.54688 -2.03127,2.70313 -3.42187,3.46875 -1.39064,0.76563 -3.0547,1.14844 -4.99219,1.14844 -3.21876,0 -5.81251,-1.22656 -7.78125,-3.67969 -1.96875,-2.45311 -2.95313,-5.70311 -2.95312,-9.75 -10e-6,-4.06248 0.98437,-7.32029 2.95312,-9.77343 1.96874,-2.4531 4.56249,-3.67966 7.78125,-3.67969 1.93749,3e-5 3.60155,0.38284 4.99219,1.14844 1.3906,0.76565 2.53123,1.9219 3.42187,3.46875 l 0,-3.98438 4.3125,0 0,22.99219"
       style="font-size:48px;text-align:center;text-anchor:middle;fill:#ffffff"
       id="path3096" /></g></g><g
   inkscape:groupmode="layer"
   id="layer3"
   inkscape:label="mask"
   style="display:inline" /></svg>